<svg width="356" height="79" viewBox="0 0 356 79" fill="none" xmlns="http://www.w3.org/2000/svg">
<g>
<path d="M73.5933 49.9936C73.5368 49.6326 73.3276 49.4239 73.0562 49.2208C69.6186 46.6739 66.1839 44.1213 62.7549 41.5631C62.4467 41.3347 62.1245 41.1626 61.7683 41.0244C51.7073 37.1039 41.6491 33.1834 31.5937 29.2488C25.4678 26.8513 19.3701 24.3721 12.9784 22.7305C12.707 22.6629 12.4498 22.5867 12.1671 22.6093C9.27798 22.8377 6.38604 23.0605 3.4941 23.2947C3.2736 23.3116 3.03613 23.2862 2.79019 23.4413C2.67994 24.0054 2.33223 24.5413 2.32092 25.2182C2.6234 25.2182 2.875 25.2182 3.1266 25.2182C6.27861 25.2521 9.43346 25.2944 12.5883 25.3113C13.2837 25.3141 13.9254 25.458 14.5672 25.7062C30.0446 31.6998 45.522 37.6934 61.0107 43.6588C62.5937 44.268 64.0666 45.0239 65.4602 45.9941C68.0808 47.819 70.7466 49.5734 73.4378 51.3841C73.7544 50.9046 73.7403 50.9046 73.5933 49.9964" fill="#FFFFFF"/>
<path d="M72.177 52.3685C70.1755 51.1585 68.1769 49.9485 66.1669 48.7498C65.3924 48.2872 64.6602 47.7485 63.8065 47.4213C47.0654 41.0019 30.3244 34.5824 13.5833 28.1572C13.1989 28.0106 12.8172 27.9288 12.413 27.8893C10.0808 27.658 7.74858 27.4183 5.41636 27.1842C4.18948 27.0601 2.9626 26.9444 1.71592 26.8203C1.52086 27.4126 1.23817 27.9344 1.21838 28.5549C3.98311 29.0852 6.70261 29.5901 9.41363 30.1344C10.6462 30.3826 11.9126 30.487 13.0943 30.9354C29.0297 37.0024 44.965 43.0721 60.8976 49.1503C62.4919 49.7595 64.1344 50.2644 65.6637 51.0231C67.4419 51.906 69.1748 52.8734 70.9331 53.7985C71.1282 53.9001 71.2978 54.0749 71.5975 54.0383C71.9113 53.5983 72.2392 53.1329 72.5501 52.6929C72.454 52.4842 72.2985 52.4419 72.1742 52.3657" fill="#FFFFFF"/>
<path d="M18.3581 35.6485C16.1729 34.825 14.0103 33.9337 11.7911 33.2116C9.37976 32.4275 6.91751 31.8014 4.47787 31.1103C3.32732 30.786 2.17393 30.4673 0.961182 30.126V31.9678C23.6699 40.4914 46.3729 49.0093 69.1126 57.5442C69.5678 56.8983 69.9946 56.2975 70.4583 55.6403C68.8441 54.9267 67.3345 54.1765 65.7684 53.5814C49.9687 47.5906 34.1606 41.6224 18.3552 35.6514" fill="#FFFFFF"/>
<path d="M3.94074 21.498C5.92807 21.1736 7.9154 20.838 9.90272 20.5192C10.813 20.3726 11.7006 20.1864 12.6533 20.4798C15.681 21.4077 18.7312 22.2482 21.773 23.131C23.896 23.7459 26.0699 24.2085 28.1307 25.0151C39.0059 29.2656 49.8698 33.5528 60.7365 37.8259C61.0446 37.9472 61.3329 38.0769 61.593 38.2885C64.9146 40.9905 68.2335 43.6926 71.5664 46.3805C72.0668 46.7839 72.5191 47.2577 73.1382 47.5651C73.2117 47.1054 73.0081 46.7274 73.0081 46.3269C73.0081 45.8615 72.7763 45.5456 72.4343 45.2439C68.4992 41.8198 64.5726 38.3872 60.6516 34.9462C60.3407 34.6754 60.0071 34.4836 59.6283 34.3341C52.7617 31.618 45.9008 28.8962 39.037 26.1772C37.3097 25.4918 35.6164 24.6795 33.8383 24.1774C26.3667 22.0621 18.8669 20.0482 11.3784 17.9864C11.025 17.8877 10.6943 17.8905 10.3437 17.9836C9.39388 18.2318 8.43838 18.449 7.4857 18.6887C6.34363 18.9736 5.20438 19.2698 4.06513 19.5603C3.85311 20.2231 3.65805 20.838 3.46582 21.4387C3.64109 21.5713 3.79657 21.5233 3.93792 21.5008" fill="#FFFFFF"/>
<path d="M17.2668 40.7028C14.8921 39.8172 12.4695 39.0443 10.1712 37.9697C7.25945 36.6074 4.36186 35.2141 1.45578 33.8433C1.27203 33.7559 1.09676 33.5472 0.816895 33.6995V35.372C0.907356 35.4313 1.00347 35.5074 1.11089 35.5667C4.16397 37.3182 7.21705 39.0669 10.273 40.81C10.5528 40.9708 10.8638 41.0864 11.1691 41.1992C19.647 44.3356 28.125 47.4692 36.6057 50.6056C46.0731 54.1031 55.5433 57.6033 65.0502 61.1149C65.8446 60.5874 66.6474 60.0543 67.5634 59.4479C67.2072 59.3097 66.9838 59.2223 66.7577 59.1377C50.2598 52.9974 33.7619 46.86 17.2696 40.7056" fill="#FFFFFF"/>
<path d="M62.2884 62.4801C59.812 61.5747 57.3385 60.6665 54.8621 59.7583C40.1762 54.3711 25.4904 48.9839 10.8045 43.6024C10.3522 43.436 9.93382 43.2272 9.53522 42.9565C6.8242 41.1288 4.1047 39.3152 1.38803 37.496C1.18732 37.3606 1.0064 37.1801 0.695435 37.1237V38.9401C3.5789 41.1683 6.46518 43.3993 9.35147 45.6303C9.59459 45.8165 9.8688 45.9293 10.1543 46.0337C23.7914 50.9978 37.4256 55.9675 51.0627 60.9344C54.1271 62.0513 57.1943 63.1626 60.2643 64.2767C61.0474 63.7324 61.8672 63.2783 62.5796 62.6831C62.4891 62.5196 62.3845 62.5111 62.2913 62.4744" fill="#FFFFFF"/>
<path d="M10.827 15.9924C19.3332 18.2431 27.8451 20.477 36.3485 22.7334C38.0729 23.1903 39.8369 23.5175 41.4992 24.1775C47.1502 26.417 52.7955 28.679 58.4437 30.927C58.896 31.1075 59.289 31.3501 59.6452 31.6857C63.7386 35.5385 67.8376 39.3857 71.9395 43.2301C72.1147 43.3965 72.2533 43.6249 72.584 43.6954C72.4624 42.7365 72.3889 41.8818 71.6087 41.1203C67.5012 37.1011 63.4417 33.0283 59.4077 28.9357C58.5031 28.019 57.5278 27.3365 56.3151 26.8824C52.086 25.3001 47.9841 23.4216 43.5543 22.3413C32.3399 19.6083 21.1736 16.7003 9.98461 13.8657C9.72454 13.798 9.45881 13.7162 9.17329 13.8375C7.92661 14.3677 6.67711 14.8867 5.43044 15.4057C5.19581 16.1221 4.97531 16.8047 4.7124 17.6142C6.41704 17.0529 7.97467 16.5593 9.51534 16.0177C9.97331 15.857 10.3776 15.8711 10.8299 15.9924" fill="#FFFFFF"/>
<path d="M9.71611 48.3182C9.37688 48.1969 9.08571 48.0333 8.81715 47.7964C6.31815 45.602 3.81349 43.4161 1.30601 41.2331C1.09117 41.0469 0.887629 40.8269 0.539917 40.6943V42.5418C3.05871 45.0041 5.6199 47.5002 8.16696 50.0133C8.55142 50.3941 8.97546 50.6564 9.48713 50.8397C22.7708 55.5979 36.0489 60.3674 49.3298 65.1369C51.4076 65.8815 53.4854 66.6205 55.5886 67.3736C56.3547 66.8687 57.1038 66.3723 57.9943 65.7884C56.9653 65.4105 56.0777 65.0833 55.19 64.7618C40.032 59.2787 24.8741 53.7984 9.71328 48.3238" fill="#FFFFFF"/>
<path d="M9.28357 12.0859C11.9183 12.7431 14.5614 13.3665 17.199 14.0095C27.8734 16.61 38.5535 19.2021 49.2252 21.8252C51.6111 22.4118 54.0564 22.8039 56.3207 23.839C56.7193 24.0224 57.0529 24.2452 57.3497 24.5639C61.135 28.5803 64.9259 32.5911 68.7168 36.6018C69.7684 37.7159 70.8229 38.8244 71.8773 39.9357C71.8349 39.1121 71.931 38.3082 71.3232 37.6341C66.5966 32.3965 61.8898 27.1418 57.1858 21.8844C56.9511 21.6221 56.6854 21.4811 56.3603 21.4049C50.3107 19.9918 44.2639 18.5788 38.2143 17.16C28.6169 14.9121 19.0167 12.6726 9.42492 10.3936C8.52313 10.1793 7.76269 10.1962 7.04465 10.7857C7.00507 10.8167 6.96832 10.8477 6.892 10.9126C6.66301 11.6318 6.42273 12.3849 6.13721 13.279C6.96832 12.8672 7.66657 12.5316 8.35069 12.1734C8.66165 12.0126 8.94151 11.9957 9.2864 12.0831" fill="#FFFFFF"/>
<path d="M52.6543 68.5639C38.0645 63.3572 23.4719 58.1619 8.87653 52.9665C8.51185 52.8367 8.20937 52.6534 7.94647 52.3657C5.8178 50.0444 3.67782 47.7344 1.54349 45.4216C1.20991 45.0606 0.876335 44.6995 0.41272 44.2003V46.2395C2.75624 49.0319 5.15347 51.8834 7.53374 54.7462C7.8136 55.0819 8.16697 55.2201 8.54578 55.3526C20.5715 59.6031 32.5972 63.8565 44.6201 68.1098C46.7488 68.8629 48.8747 69.6188 51.0344 70.3831C51.7864 69.8839 52.5299 69.3903 53.2762 68.8967C53.1066 68.6288 52.8493 68.6344 52.6486 68.5611" fill="#FFFFFF"/>
<path d="M8.07363 57.4736C7.65525 57.3269 7.33015 57.1069 7.05877 56.7487C5.67923 54.921 4.2799 53.1074 2.8834 51.2938C2.06077 50.222 1.23248 49.1559 0.407016 48.0869C0.364612 48.0982 0.319381 48.1067 0.276978 48.1208V50.0105C2.32084 52.9043 4.44386 55.8997 6.54992 58.9064C6.8524 59.3379 7.21707 59.5946 7.72027 59.7695C18.7764 63.6167 29.824 67.4808 40.8773 71.342C42.7911 72.0133 44.7134 72.6705 46.6159 73.3277C47.3622 72.8341 48.0689 72.3631 48.8887 71.8187C48.558 71.6946 48.3686 71.6241 48.1792 71.5564C34.8107 66.8631 21.445 62.1669 8.07646 57.4764" fill="#FFFFFF"/>
<path d="M30.8078 13.8121C39.444 15.761 48.0774 17.7185 56.7137 19.6562C57.084 19.738 57.3413 19.8903 57.5844 20.1723C61.9633 25.3085 66.3507 30.4362 70.7409 35.5639C70.9388 35.7951 71.1112 36.0603 71.4193 36.2182C71.3741 35.169 71.0971 34.3144 70.4243 33.5021C66.4835 28.758 62.5796 23.9857 58.718 19.1739C57.9971 18.2741 57.2395 17.6621 56.072 17.5831C55.6762 17.5549 55.2889 17.4054 54.896 17.3208C47.594 15.7413 40.2921 14.1674 32.9902 12.5823C25.691 10.9972 18.3919 9.39796 11.0928 7.81565C10.8582 7.76488 10.6207 7.64078 10.3578 7.73386C9.58041 8.01027 8.80018 8.27258 7.88708 8.58847C8.19239 8.69001 8.34787 8.75488 8.51184 8.79155C15.9438 10.4669 23.3814 12.1339 30.8134 13.8121" fill="#FFFFFF"/>
<path d="M13.1423 6.96665C17.2809 7.83537 21.4195 8.69563 25.5553 9.56152C36.1195 11.7728 46.6837 13.9925 57.2536 16.1813C57.8275 16.2997 58.1865 16.5592 58.5285 16.9964C62.5088 22.0931 66.5061 27.1813 70.4977 32.2695C70.5854 32.3823 70.6391 32.5515 70.8822 32.5064C70.6787 31.8238 70.8059 31.0877 70.3196 30.4502C66.4411 25.3395 62.5852 20.2118 58.7264 15.0869C58.5031 14.7908 58.2515 14.63 57.8699 14.5538C54.7348 13.9361 51.6054 13.2818 48.4732 12.65C37.5697 10.45 26.6635 8.25563 15.76 6.05845C15.5876 6.0246 15.4236 5.95127 15.2427 6.01614C14.502 6.28127 13.7585 6.54357 12.9896 6.81716C13.0744 6.9046 13.1027 6.95819 13.1395 6.96665" fill="#FFFFFF"/>
<path d="M7.40647 61.8595C6.86088 61.6705 6.47359 61.3856 6.15415 60.8864C4.39015 58.1364 2.58657 55.4118 0.791473 52.6815C0.616204 52.4136 0.488992 52.1062 0.104531 51.8213C0.121492 52.5772 -0.158373 53.2654 0.135627 53.8041C0.811261 55.0339 1.46428 56.2974 2.36042 57.3833C3.57882 58.8585 4.89334 60.2546 6.1598 61.6903C6.39726 61.9582 6.66582 62.1698 6.98243 62.339C9.63409 63.7774 12.2801 65.2244 14.9233 66.6713C15.2766 66.8659 15.6441 67.0239 16.0258 67.1564C22.9856 69.551 29.9427 71.9513 36.8998 74.3487C38.7005 74.9692 40.5013 75.5841 42.2935 76.1962C42.9974 75.6659 43.7522 75.288 44.4222 74.7041C44.2837 74.6364 44.2215 74.5998 44.1536 74.5772C31.9074 70.3351 19.6584 66.0931 7.4093 61.8595" fill="#FFFFFF"/>
<path d="M70.1557 28.9639C70.2151 28.9385 70.2744 28.9131 70.3338 28.8906C70.1472 28.2306 70.2236 27.5339 69.7797 26.9077C66.3083 22.0057 62.8566 17.0867 59.4134 12.1649C59.1618 11.8067 58.8621 11.6403 58.4353 11.5613C54.797 10.8929 51.1616 10.2018 47.529 9.51927C43.3734 8.74081 39.2179 7.96235 35.0651 7.18107C30.3922 6.30389 25.7165 5.42671 21.0464 4.54107C20.0287 4.34927 18.782 4.60312 17.8096 5.26312C31.4862 7.92568 45.1318 10.5854 58.7067 13.2282C62.5598 18.5252 66.3591 23.7431 70.1557 28.9611" fill="#FFFFFF"/>
<path d="M69.6836 25.5567C69.6639 24.3636 69.1607 23.3651 68.567 22.4513C65.7203 18.0682 62.8199 13.719 59.9477 9.35001C59.747 9.04539 59.4982 8.91283 59.1562 8.8536C54.4409 8.04129 49.7284 7.22898 45.0159 6.39975C38.5451 5.26309 32.0686 4.14334 25.6063 2.94744C24.385 2.7218 23.4267 3.19001 22.3977 3.66668C34.7005 5.90052 47.0004 8.13437 59.3399 10.3739C62.7803 15.4226 66.232 20.4882 69.6836 25.5539" fill="#FFFFFF"/>
<path d="M65.774 16.8583C65.8277 16.8244 65.8814 16.7906 65.9351 16.7567C64.6234 13.0139 62.2968 9.82391 60.236 6.45058C56.4168 5.83006 52.5892 5.21801 48.7672 4.58904C42.4575 3.55391 36.145 2.53288 29.8438 1.44417C28.6819 1.24391 27.766 1.67545 26.785 2.15211C37.8411 4.02493 48.8972 5.90058 59.9279 7.77058C61.8926 10.8252 63.8347 13.8431 65.7768 16.8583" fill="#FFFFFF"/>
<path d="M60.5329 4.98387C60.4764 4.96695 60.4057 4.93874 60.335 4.92464C55.7187 4.02772 51.1023 3.13079 46.486 2.23669C42.4859 1.46105 38.4801 0.716435 34.4517 0.08464C33.1994 -0.109975 32.0686 0.00566568 30.8474 0.671307C40.8434 2.25643 50.7292 3.82182 60.6177 5.39002C60.6658 5.2631 60.6601 5.12208 60.5329 4.98387Z" fill="#FFFFFF"/>
<path d="M39.772 77.3893C35.8058 76.0298 31.834 74.6788 27.8706 73.3108C27.5964 73.2178 27.3363 73.1867 26.9547 73.2319C30.0728 74.9326 33.0948 76.5713 36.1055 78.2242C36.7274 78.5654 37.3832 78.7939 38.0843 78.9744C38.7713 78.5147 39.4497 78.0606 40.1225 77.6121C40.0236 77.4147 39.8822 77.4288 39.7748 77.3893" fill="#FFFFFF"/>
</g>
<g transform="translate(84 54)">
<path d="M15.773 0.539Q9.680 0.539 6.059-2.273Q2.438-5.086 2.227-10.266L8.391-10.266Q8.602-7.500 10.688-6.152Q12.773-4.805 15.727-4.805Q18.820-4.805 20.777-6.199Q22.734-7.594 22.734-9.844Q22.734-11.883 21-12.926Q19.266-13.969 16.430-14.695L12.469-15.727Q8.086-16.852 5.637-19.125Q3.188-21.398 3.188-25.102Q3.188-28.195 4.852-30.504Q6.516-32.812 9.398-34.102Q12.281-35.391 15.938-35.391Q19.664-35.391 22.465-34.102Q25.266-32.812 26.859-30.539Q28.453-28.266 28.523-25.359L22.453-25.359Q22.219-27.586 20.449-28.828Q18.680-30.070 15.844-30.070Q12.891-30.070 11.203-28.770Q9.516-27.469 9.516-25.477Q9.516-24 10.418-23.074Q11.320-22.148 12.691-21.586Q14.063-21.023 15.469-20.672L18.727-19.828Q21.305-19.195 23.660-18.012Q26.016-16.828 27.504-14.836Q28.992-12.844 28.992-9.797Q28.992-6.727 27.422-4.395Q25.852-2.062 22.898-0.762Q19.945 0.539 15.773 0.539M46.031 0.539Q42.070 0.539 39.223-1.125Q36.375-2.789 34.840-5.812Q33.305-8.836 33.305-12.937Q33.305-16.969 34.816-20.027Q36.328-23.086 39.105-24.809Q41.883-26.531 45.633-26.531Q48.820-26.531 51.551-25.137Q54.281-23.742 55.945-20.824Q57.609-17.906 57.609-13.312L57.609-11.391L39.375-11.391Q39.492-7.898 41.332-6.070Q43.172-4.242 46.102-4.242Q48.117-4.242 49.559-5.109Q51-5.977 51.609-7.641L57.211-6.492Q56.273-3.328 53.332-1.395Q50.391 0.539 46.031 0.539M39.398-15.539L51.680-15.539Q51.398-18.352 49.887-20.051Q48.375-21.750 45.656-21.750Q42.867-21.750 41.238-19.957Q39.609-18.164 39.398-15.539M70.148 0.539Q67.664 0.539 65.672-0.363Q63.680-1.266 62.531-3.023Q61.383-4.781 61.383-7.359Q61.383-10.312 62.824-11.941Q64.266-13.570 66.551-14.309Q68.836-15.047 71.367-15.305Q74.789-15.680 76.313-15.996Q77.836-16.312 77.836-17.672L77.836-17.789Q77.836-19.711 76.664-20.777Q75.492-21.844 73.266-21.844Q70.969-21.844 69.609-20.836Q68.250-19.828 67.781-18.539L62.133-19.687Q63.281-23.156 66.293-24.844Q69.305-26.531 73.242-26.531Q75.094-26.531 76.980-26.098Q78.867-25.664 80.438-24.645Q82.008-23.625 82.969-21.879Q83.930-20.133 83.930-17.508L83.930 0L78.094 0L78.094-3.609L77.859-3.609Q76.992-1.922 75.094-0.691Q73.195 0.539 70.148 0.539M71.719-3.984Q74.531-3.984 76.207-5.602Q77.883-7.219 77.883-9.398L77.883-12.492Q77.461-12.164 76.383-11.918Q75.305-11.672 74.098-11.496Q72.891-11.320 72.094-11.203Q70.031-10.922 68.660-10.078Q67.289-9.234 67.289-7.430Q67.289-5.742 68.531-4.863Q69.773-3.984 71.719-3.984M90.398-34.922L96.492-34.922L96.492 0L90.398 0M109.383 0L103.242 0L103.242-34.922L112.664-34.922L119.297-16.898Q119.648-15.867 120.105-14.215Q120.563-12.562 121.031-10.676Q121.500-8.789 121.898-7.055Q122.297-8.766 122.766-10.652Q123.234-12.539 123.691-14.191Q124.148-15.844 124.477-16.898L131.039-34.922L140.484-34.922L140.484 0L134.250 0L134.250-17.625Q134.250-18.937 134.285-20.871Q134.320-22.805 134.379-24.984Q134.438-27.164 134.461-29.250Q133.875-27 133.219-24.773Q132.563-22.547 131.977-20.672Q131.391-18.797 130.969-17.625L124.523 0L119.203 0L112.664-17.625Q112.242-18.750 111.668-20.578Q111.094-22.406 110.449-24.609Q109.805-26.812 109.148-29.062Q109.195-27.094 109.254-24.949Q109.313-22.805 109.348-20.883Q109.383-18.961 109.383-17.625M146.977 9.352L148.406 4.594L149.133 4.781Q151.195 5.344 152.578 4.676Q153.961 4.008 154.430 1.758L154.805 0.094L144.914-26.203L151.430-26.203L156.211-11.953Q156.773-10.242 157.195-8.543Q157.617-6.844 157.992-5.133Q158.438-6.867 158.895-8.566Q159.352-10.266 159.938-11.953L164.883-26.203L171.328-26.203L160.078 3.375Q158.883 6.516 156.750 8.250Q154.617 9.984 151.055 9.984Q149.766 9.984 148.676 9.797Q147.586 9.609 146.977 9.352M175.758-34.922L182.016-34.922L182.016 0L175.758 0M198.422 0.469Q195.328 0.469 192.879-1.113Q190.430-2.695 189.023-5.719Q187.617-8.742 187.617-13.055Q187.617-17.414 189.047-20.426Q190.477-23.437 192.926-24.984Q195.375-26.531 198.398-26.531Q200.742-26.531 202.230-25.746Q203.719-24.961 204.586-23.871Q205.453-22.781 205.922-21.867L206.180-21.867L206.180-34.922L212.273-34.922L212.273 0L206.297 0L206.297-4.148L205.922-4.148Q205.430-3.211 204.539-2.133Q203.648-1.055 202.160-0.293Q200.672 0.469 198.422 0.469M200.086-4.547Q203.063-4.547 204.680-6.902Q206.297-9.258 206.297-13.078Q206.297-16.898 204.691-19.207Q203.086-21.516 200.086-21.516Q196.992-21.516 195.422-19.125Q193.852-16.734 193.852-13.078Q193.852-9.398 195.434-6.973Q197.016-4.547 200.086-4.547M230.297 0.539Q226.336 0.539 223.488-1.125Q220.641-2.789 219.105-5.812Q217.570-8.836 217.570-12.937Q217.570-16.969 219.082-20.027Q220.594-23.086 223.371-24.809Q226.148-26.531 229.898-26.531Q233.086-26.531 235.816-25.137Q238.547-23.742 240.211-20.824Q241.875-17.906 241.875-13.312L241.875-11.391L223.641-11.391Q223.758-7.898 225.598-6.070Q227.438-4.242 230.367-4.242Q232.383-4.242 233.824-5.109Q235.266-5.977 235.875-7.641L241.477-6.492Q240.539-3.328 237.598-1.395Q234.656 0.539 230.297 0.539M223.664-15.539L235.945-15.539Q235.664-18.352 234.152-20.051Q232.641-21.750 229.922-21.750Q227.133-21.750 225.504-19.957Q223.875-18.164 223.664-15.539M254.414 0.539Q251.930 0.539 249.938-0.363Q247.945-1.266 246.797-3.023Q245.648-4.781 245.648-7.359Q245.648-10.312 247.090-11.941Q248.531-13.570 250.816-14.309Q253.102-15.047 255.633-15.305Q259.055-15.680 260.578-15.996Q262.102-16.312 262.102-17.672L262.102-17.789Q262.102-19.711 260.930-20.777Q259.758-21.844 257.531-21.844Q255.234-21.844 253.875-20.836Q252.516-19.828 252.047-18.539L246.398-19.687Q247.547-23.156 250.559-24.844Q253.570-26.531 257.508-26.531Q259.359-26.531 261.246-26.098Q263.133-25.664 264.703-24.645Q266.273-23.625 267.234-21.879Q268.195-20.133 268.195-17.508L268.195 0L262.359 0L262.359-3.609L262.125-3.609Q261.258-1.922 259.359-0.691Q257.461 0.539 254.414 0.539M255.984-3.984Q258.797-3.984 260.473-5.602Q262.148-7.219 262.148-9.398L262.148-12.492Q261.727-12.164 260.648-11.918Q259.570-11.672 258.363-11.496Q257.156-11.320 256.359-11.203Q254.297-10.922 252.926-10.078Q251.555-9.234 251.555-7.430Q251.555-5.742 252.797-4.863Q254.039-3.984 255.984-3.984" fill="#FFFFFF"/>
</g>
</svg>
